<svg width="226" height="226" viewBox="0 0 226 226" fill="none" xmlns="http://www.w3.org/2000/svg">
<path fill-rule="evenodd" clip-rule="evenodd" d="M99.7249 190.092C99.7249 152.15 99.5902 150.116 96.6645 143.867C94.5923 139.443 88.6004 133.059 83.8156 130.177C76.5149 125.78 75.7262 125.707 35.7779 125.665L0 125.628V112.639V99.6505L38.3682 99.8797C75.6064 100.102 76.8834 100.151 81.7168 101.535C104.434 108.038 120.841 125.55 124.643 147.352C125.446 151.951 125.628 159.748 125.628 189.497V226H112.676H99.7249V190.092ZM28.3251 197.016L19.4321 188.106L43.5571 163.987L67.6821 139.869L76.7364 148.94L85.7906 158.011L61.8398 181.968C48.6671 195.145 37.7381 205.926 37.5536 205.926C37.369 205.926 33.2162 201.916 28.3251 197.016ZM163.51 181.966L139.556 158.005L148.782 148.78L158.008 139.554L182.124 163.67L206.24 187.786L197.187 196.856C192.208 201.844 187.983 205.926 187.799 205.926C187.614 205.926 176.684 195.144 163.51 181.966ZM146.89 124.613C125.555 120.753 107.924 104.135 101.587 81.9169C100.137 76.8335 100.105 76.0189 99.8797 38.3682L99.6505 0H112.639H125.628L125.665 35.7779C125.698 67.4341 125.83 72.0467 126.814 75.8175C129.722 86.9556 139.777 96.695 150.752 99.0029C153.038 99.484 166.177 99.7249 190.092 99.7249H226V112.676V125.628L188.927 125.569C160.341 125.525 150.717 125.306 146.89 124.613ZM43.2191 61.6747L19.4218 37.8709L28.658 28.6515L37.8942 19.4315L61.6863 43.2308C74.7717 56.32 85.4785 67.3234 85.4785 67.6828C85.4785 68.5279 68.5052 85.4785 67.6588 85.4785C67.3053 85.4785 56.3077 74.7665 43.2191 61.6747ZM148.772 76.5687L139.879 67.6588L164.004 43.5403L188.129 19.4218L197.183 28.4928L206.238 37.5639L182.287 61.5212C169.114 74.6979 158.185 85.4785 158.001 85.4785C157.816 85.4785 153.663 81.4688 148.772 76.5687Z" fill="#0265FF"/>
</svg>
