<svg width="872" height="270" fill="none" xmlns="http://www.w3.org/2000/svg"><path fill-rule="evenodd" clip-rule="evenodd" d="M75.014 77.01c0 28.541-.101 30.071-2.302 34.771-1.559 3.329-6.066 8.13-9.665 10.298-5.491 3.307-6.085 3.363-36.134 3.394L0 125.501v19.541l28.861-.173c28.011-.167 28.972-.204 32.607-1.245 17.089-4.891 29.43-18.064 32.29-34.464.604-3.459.74-9.325.74-31.702V50H75.015v27.01zm-53.707-5.208l-6.69 6.702 18.147 18.143 18.147 18.142 6.811-6.823 6.81-6.824-18.015-18.02C36.608 73.21 28.387 65.1 28.248 65.1c-.139 0-3.262 3.016-6.942 6.702zm101.687 11.321l-18.018 18.024 6.94 6.939 6.939 6.94 18.141-18.14 18.14-18.14-6.809-6.823c-3.746-3.752-6.924-6.823-7.062-6.823-.139 0-8.361 8.11-18.271 18.023zm-12.502 43.142c-16.048 2.903-29.31 15.403-34.077 32.116-1.09 3.824-1.115 4.437-1.284 32.758L74.958 220h19.54l.029-26.913c.025-23.812.124-27.281.864-30.118 2.188-8.378 9.751-15.704 18.007-17.44 1.719-.362 11.602-.543 29.591-.543H170v-19.485l-27.887.044c-21.503.034-28.741.199-31.621.72zM32.51 173.608l-17.9 17.905 6.947 6.935 6.948 6.935L46.4 187.481c9.843-9.846 17.897-18.122 17.897-18.393 0-.636-12.767-13.386-13.404-13.386-.266 0-8.539 8.058-18.384 17.906zm79.398-11.204l-6.689 6.702 18.147 18.142 18.147 18.143 6.811-6.824 6.811-6.823-18.017-18.021c-9.908-9.912-18.129-18.021-18.268-18.021-.139 0-3.263 3.016-6.942 6.702z" fill="#fff"/><path d="M318.32 72.9L271.34 198h-23.76L200.42 72.9h21.96l37.08 104.04L296.72 72.9h21.6zm27.6 12.78c-3.72 0-6.84-1.26-9.36-3.78-2.52-2.52-3.78-5.64-3.78-9.36 0-3.72 1.26-6.84 3.78-9.36 2.52-2.52 5.64-3.78 9.36-3.78 3.6 0 6.66 1.26 9.18 3.78 2.52 2.52 3.78 5.64 3.78 9.36 0 3.72-1.26 6.84-3.78 9.36-2.52 2.52-5.58 3.78-9.18 3.78zM356 98.82V198h-20.52V98.82H356zm50.881 16.74v54.9c0 3.72.84 6.42 2.52 8.1 1.8 1.56 4.8 2.34 9 2.34h12.6V198h-16.2c-9.24 0-16.32-2.16-21.24-6.48-4.92-4.32-7.38-11.34-7.38-21.06v-54.9h-11.7V98.82h11.7V74.16h20.7v24.66h24.12v16.74h-24.12zm63.553-2.34c3-5.04 6.96-8.94 11.88-11.7 5.04-2.88 10.98-4.32 17.82-4.32v21.24h-5.22c-8.04 0-14.16 2.04-18.36 6.12-4.08 4.08-6.12 11.16-6.12 21.24V198h-20.52V98.82h20.52v14.4zm41.722 34.74c0-9.96 2.04-18.78 6.12-26.46 4.2-7.68 9.84-13.62 16.92-17.82 7.2-4.32 15.12-6.48 23.76-6.48 7.8 0 14.58 1.56 20.34 4.68 5.88 3 10.56 6.78 14.04 11.34v-14.4h20.7V198h-20.7v-14.76c-3.48 4.68-8.22 8.58-14.22 11.7-6 3.12-12.84 4.68-20.52 4.68-8.52 0-16.32-2.16-23.4-6.48-7.08-4.44-12.72-10.56-16.92-18.36-4.08-7.92-6.12-16.86-6.12-26.82zm81.18.36c0-6.84-1.44-12.78-4.32-17.82-2.76-5.04-6.42-8.88-10.98-11.52-4.56-2.64-9.48-3.96-14.76-3.96-5.28 0-10.2 1.32-14.76 3.96-4.56 2.52-8.28 6.3-11.16 11.34-2.76 4.92-4.14 10.8-4.14 17.64s1.38 12.84 4.14 18c2.88 5.16 6.6 9.12 11.16 11.88 4.68 2.64 9.6 3.96 14.76 3.96 5.28 0 10.2-1.32 14.76-3.96 4.56-2.64 8.22-6.48 10.98-11.52 2.88-5.16 4.32-11.16 4.32-18zm87.612-51.12c7.68 0 14.46 1.56 20.34 4.68 6 3 10.68 6.78 14.04 11.34v-14.4h20.7v100.8c0 9.12-1.92 17.22-5.76 24.3-3.84 7.2-9.42 12.84-16.74 16.92-7.2 4.08-15.84 6.12-25.92 6.12-13.44 0-24.6-3.18-33.48-9.54-8.88-6.24-13.92-14.76-15.12-25.56h20.34c1.56 5.16 4.86 9.3 9.9 12.42 5.16 3.24 11.28 4.86 18.36 4.86 8.28 0 14.94-2.52 19.98-7.56 5.16-5.04 7.74-12.36 7.74-21.96v-16.56c-3.48 4.68-8.22 8.64-14.22 11.88-5.88 3.12-12.6 4.68-20.16 4.68-8.64 0-16.56-2.16-23.76-6.48-7.08-4.44-12.72-10.56-16.92-18.36-4.08-7.92-6.12-16.86-6.12-26.82s2.04-18.78 6.12-26.46c4.2-7.68 9.84-13.62 16.92-17.82 7.2-4.32 15.12-6.48 23.76-6.48zm34.38 51.12c0-6.84-1.44-12.78-4.32-17.82-2.76-5.04-6.42-8.88-10.98-11.52-4.56-2.64-9.48-3.96-14.76-3.96-5.28 0-10.2 1.32-14.76 3.96-4.56 2.52-8.28 6.3-11.16 11.34-2.76 4.92-4.14 10.8-4.14 17.64s1.38 12.84 4.14 18c2.88 5.16 6.6 9.12 11.16 11.88 4.68 2.64 9.6 3.96 14.76 3.96 5.28 0 10.2-1.32 14.76-3.96 4.56-2.64 8.22-6.48 10.98-11.52 2.88-5.16 4.32-11.16 4.32-18zm40.812-.36c0-9.96 2.04-18.78 6.12-26.46 4.2-7.68 9.84-13.62 16.92-17.82 7.2-4.32 15.12-6.48 23.76-6.48 7.8 0 14.58 1.56 20.34 4.68 5.88 3 10.56 6.78 14.04 11.34v-14.4h20.7V198h-20.7v-14.76c-3.48 4.68-8.22 8.58-14.22 11.7-6 3.12-12.84 4.68-20.52 4.68-8.52 0-16.32-2.16-23.4-6.48-7.08-4.44-12.72-10.56-16.92-18.36-4.08-7.92-6.12-16.86-6.12-26.82zm81.18.36c0-6.84-1.44-12.78-4.32-17.82-2.76-5.04-6.42-8.88-10.98-11.52-4.56-2.64-9.48-3.96-14.76-3.96-5.28 0-10.2 1.32-14.76 3.96-4.56 2.52-8.28 6.3-11.16 11.34-2.76 4.92-4.14 10.8-4.14 17.64s1.38 12.84 4.14 18c2.88 5.16 6.6 9.12 11.16 11.88 4.68 2.64 9.6 3.96 14.76 3.96 5.28 0 10.2-1.32 14.76-3.96 4.56-2.64 8.22-6.48 10.98-11.52 2.88-5.16 4.32-11.16 4.32-18z" fill="#fff"/></svg>